<svg width="331" height="582" viewBox="0 0 331 582" fill="none" xmlns="http://www.w3.org/2000/svg">
<path d="M300.714 80.2652L300.688 80.1022L300.649 79.9418C294.114 53.2103 270.631 31.1462 249.924 19.6424C228.723 7.86383 205.293 6.8043 174.003 6.80353C165.029 6.64831 159.17 5.96659 154.204 5.31735C153.693 5.25055 153.188 5.18358 152.687 5.11718C148.313 4.53675 144.268 4 139.205 4H138.801L138.406 4.08063C114.521 8.95031 92.7155 21.2198 75.2432 34.4131C57.7628 47.6125 44.3815 61.9171 37.3369 71.1813L37.0549 71.5522L36.8657 71.9779C36.2081 73.4573 35.7656 75.3509 35.4352 77.3181C35.0938 79.3511 34.8297 81.7364 34.625 84.3442C34.2154 89.563 34.0285 95.883 33.9838 102.466C33.8978 115.132 34.3378 128.988 34.7894 138.306C29.7809 147.892 27.0286 156.471 25.7143 163.35C25.3294 165.364 25.0603 167.273 24.8989 169.046C23.6977 168.393 22.4925 167.91 21.2828 167.603C17.3749 166.613 13.8852 167.587 11.1682 169.677C8.58724 171.662 6.82443 174.539 5.71184 177.382C4.58701 180.257 4 183.414 4 186.304C4 194.12 6.47619 203.351 7.90292 207.648C7.23158 231.49 17.4112 254.694 23.1373 264.357C24.1769 278.854 28.1223 287.804 33.3766 292.85C37.153 296.476 41.4111 297.881 45.1307 297.9C50.0708 322.179 62.3985 337.024 69.8706 342.746C71.9904 358.715 75.1207 391.293 76.6713 408.333C67.9654 413.086 53.4924 421.015 51.3591 422.295C49.8522 423.199 48.9831 424.548 48.4831 425.706C47.9823 426.866 47.7398 428.085 47.62 429.145C47.3856 431.219 47.5521 433.329 47.7766 434.716C51.4249 462.915 61.7565 496.665 66.4652 510.038L66.7306 510.792L67.265 511.385C82.4902 528.302 99.2427 544.791 116.103 557.079C132.864 569.295 150.259 577.751 166.679 577.751C182.632 577.751 199.075 572.597 214.337 565.537C229.632 558.461 244.003 549.346 255.862 541.158C275.327 527.718 291.225 506.394 296.803 497.353L297.096 496.878L297.248 496.341C304.539 470.541 308.037 453.432 308.331 441.877C308.479 436.065 307.83 431.358 306.234 427.552C304.592 423.634 302.041 420.899 298.849 418.948C291.209 414.279 269.996 402.769 258.407 396.554C259.661 383.861 261.205 359.828 261.954 347.156C279.946 334.264 287.499 316.476 289.741 299.166C293.833 298.352 297.179 296.723 299.859 294.475C303.194 291.678 305.253 288.13 306.545 284.617C308.593 279.048 308.884 272.87 309.052 269.297C309.088 268.525 309.118 267.874 309.16 267.378C309.546 262.745 311.257 258.269 312.056 256.621C320.935 241.695 323.067 232.986 323.481 224.172C323.601 221.632 323.587 219.228 323.573 216.749C323.54 210.725 323.504 204.26 325.366 194.331C328.092 179.787 326.361 170.497 320.763 165.813C317.307 162.921 313.176 162.43 309.513 162.944C309.374 159.12 308.555 155.499 307.498 152.354C306.126 148.276 304.284 144.796 302.719 142.435C302.719 133.07 302.709 120.996 302.474 109.685C302.23 97.9533 301.742 86.747 300.714 80.2652Z" fill="#010101" stroke="url(#paint0_linear_4802_1234)" stroke-width="8"/>
<path d="M159.951 193.001C165.783 154.425 157.895 118.615 153.223 105.532C153.97 120.484 151.877 150.164 137.523 149.267C119.58 148.145 101.077 130.203 63.5098 164.406C67.8087 153.378 81.4524 133.567 116.777 138.052C112.665 136.183 101.75 133.006 90.9844 135.249C90.9844 133.754 91.9936 130.427 96.0307 129.081C101.077 127.399 112.852 128.52 117.898 130.763C116.403 129.642 112.515 126.614 108.927 123.474C117.151 127.025 134.383 134.015 137.523 133.567C140.663 133.118 138.831 127.399 137.523 124.595C137.71 125.156 137.859 126.614 136.962 127.96C135.093 124.595 129.337 117.194 121.262 114.503C122.758 115.437 126.197 118.54 127.991 123.474C126.309 121.231 121.15 116.185 113.973 113.942C114.908 114.503 117.338 116.409 119.58 119.549C116.403 117.306 106.572 113.045 92.6665 113.942C78.761 114.839 68.5562 122.166 65.1919 125.717C68.5562 119.362 80.5553 107.101 101.638 108.896C98.6473 108.335 92.6665 105.307 92.6665 97.6816C92.6665 88.1497 95.47 53.3859 98.8342 48.9003C102.198 44.4147 132.514 22.8434 138.084 21.9865C152.662 19.7435 163.315 25.3507 176.212 25.3507C190.79 24.2291 188.547 22.547 203.686 22.547C218.825 22.547 245.739 32.6397 267.606 73.5712C267.046 68.8986 265.027 57.4229 261.439 48.9002C269.289 55.8155 285.213 72.8984 286.11 85.9067C287.231 102.167 287.792 135.249 287.792 145.902C287.792 152.07 293.96 155.434 295.081 167.209C295.978 176.629 295.455 189.45 295.081 194.684C297.511 189.45 304.277 179.096 311.902 179.544C319.528 179.993 312.463 189.076 311.902 213.747C310.22 236.736 301.436 250.567 296.202 261.968C296.389 270.939 294.632 288.433 286.11 286.639C284.748 286.353 284.557 285.766 283.303 284.957C284.051 281.593 286.11 273.743 286.11 264.772C289.287 265.706 296.539 262.192 300.127 240.661C297.511 243.839 291.829 250.866 290.035 253.558C290.035 251.689 290.932 246.268 294.52 239.54C299.006 231.129 299.006 230.008 300.127 226.083C301.249 222.158 299.006 214.869 299.006 209.823C299.006 204.776 300.688 198.048 304.613 196.926C308.538 195.805 308.538 207.019 305.734 224.401C307.043 220.289 309.771 209.71 310.22 200.291C310.781 188.516 301.538 191.409 294.52 204.776C282.746 227.204 282.746 291.125 271.531 315.796C263.457 332.841 238.263 350.186 226.675 356.727C199.761 373.549 196.397 372.427 182.94 372.427C175.651 372.427 168.369 366.82 146.494 366.82C121.823 366.82 126.869 336.542 127.43 333.738C128.2 329.89 127.43 329.814 134.72 321.403C76.4064 291.686 60.1458 230.569 59.0243 226.083C58.1272 222.495 60.1458 220.85 61.2672 220.476C80.8918 213.748 81.4525 210.383 88.7417 202.533C99.0502 191.432 100.517 208.141 116.777 189.637C129.785 174.835 134.159 175.62 134.72 177.862C119.02 197.599 116.215 228.7 116.775 241.783C106.526 248.762 99.2125 255.341 99.3952 259.725C99.9559 273.182 107.245 292.246 108.927 297.293C110.273 301.33 113.6 300.844 115.095 300.096C134.72 280.471 144.812 277.668 149.859 277.668C158.83 277.668 159.951 279.911 163.316 279.911C168.25 279.911 171.726 277.668 172.848 276.547C168.362 268.024 163.876 266.641 162.194 267.015C156.363 271.5 151.167 272.248 149.298 272.061C152.886 267.127 153.41 259.165 153.223 255.8C142.009 262.529 132.851 255.987 129.673 251.876C143.691 261.968 146.494 248.511 153.223 250.754C158.606 252.548 162.942 251.502 164.437 250.754C161.073 251.315 149.859 249.633 149.859 235.615C149.859 221.597 155.466 225.522 159.951 193.001Z" fill="#D79771"/>
<path d="M181.258 150.419C183.052 138.308 191.724 124.44 195.836 119.02L197.518 121.823L240.132 113.973L268.167 130.794C248.879 127.206 227.609 130.794 219.386 133.037L222.75 138.084C235.646 142.009 242.935 149.858 247.421 156.026C251.01 160.96 257.888 164.437 260.878 165.558C242.375 168.922 235.085 182.379 226.114 182.94C218.937 183.389 213.779 181.258 212.097 180.136C211.199 189.556 218.825 195.649 222.75 197.518C208.732 196.958 189.668 184.622 189.668 168.362C189.668 155.353 207.237 140.14 216.022 134.159C208.396 135.056 199.387 140.14 195.836 142.569C201.667 131.355 212.47 126.309 217.143 125.187C196.509 128.776 184.622 143.504 181.258 150.419Z" fill="#B05B3B"/>
<path d="M217.704 124.066C203.35 125.86 191.164 133.411 186.865 136.962C189.557 123.057 196.958 114.721 200.322 112.291L199.201 117.898C200.995 115.655 204.06 112.932 205.369 111.85C225.35 107.19 250.016 103.521 258.635 109.488C270.298 117.562 278.821 136.028 281.624 144.251C277.699 138.831 265.252 127.655 246.861 126.309C228.47 124.963 211.91 129.112 205.929 131.355C208.172 129.112 214.714 125.561 217.704 124.066Z" fill="black"/>
<path d="M235.646 141.448C217.704 138.084 206.49 144.813 199.761 149.859C199.761 141.448 214.34 129.673 219.947 132.477C225.053 135.031 232.095 140.14 235.646 141.448Z" fill="black"/>
<path d="M181.257 247.421C177.669 244.73 173.781 244.805 172.286 245.178C173.968 239.011 180.136 237.889 182.94 237.889C185.743 237.889 191.911 240.693 191.911 245.178C191.911 249.664 185.743 250.785 181.257 247.421Z" fill="black"/>
<path d="M115.655 150.419C106.684 145.485 95.47 148.363 90.9844 150.419C94.3486 150.419 97.8997 154.157 98.8342 155.465C105.563 154.344 107.806 155.465 110.048 156.026L115.655 150.419Z" fill="url(#paint1_linear_4802_1234)"/>
<path fill-rule="evenodd" clip-rule="evenodd" d="M111.73 158.83C117.337 158.83 119.58 162.194 119.58 164.437C119.58 167.801 116.776 172.847 103.88 172.847C93.563 172.847 90.2361 166.493 89.8623 163.315C91.1706 165.184 95.8058 168.922 103.88 168.922C104.601 168.922 105.262 168.869 105.867 168.769C105.323 168.026 105.001 167.11 105.001 166.119C105.001 163.641 107.009 161.633 109.487 161.633C110.379 161.633 111.21 161.893 111.908 162.342C112.056 161.053 111.946 159.801 111.73 158.83Z" fill="#F9F9FB"/>
<path d="M185.743 282.185C180.36 279.942 168.621 281.198 167.24 282.185C164.997 282.745 163.315 283.867 156.587 282.185C151.204 280.839 147.241 281.998 145.933 282.745L158.829 310.22C168.922 312.463 183.725 313.023 191.35 310.781C200.882 307.977 202.004 300.127 200.882 296.763C199.761 293.399 192.472 284.988 185.743 282.185Z" fill="#DF7861"/>
<path d="M127.429 241.253C126.977 247.581 132.476 250.225 138.083 251.907C135.841 250.225 134.158 247.982 134.158 244.617C134.158 238.786 140.139 238.076 143.129 238.45C139.765 232.282 127.991 233.404 127.429 241.253Z" fill="#B05B3B"/>
<path d="M154.344 313.023C162.194 311.341 167.801 311.902 173.408 311.902C165.334 311.453 162.194 304.613 161.633 301.249L164.437 300.127C163.54 292.053 165.558 287.418 166.68 286.11C159.054 286.11 152.662 282.745 150.419 281.063L145.373 282.185C138.458 287.605 124.851 299.791 125.748 305.174C126.87 311.902 146.494 314.706 154.344 313.023Z" fill="#B05B3B"/>
<path fill-rule="evenodd" clip-rule="evenodd" d="M152.39 126.023C150.582 128.524 147.651 129.929 143.13 127.991C139.323 126.359 137.889 123.145 136.464 119.947C134.949 116.552 133.444 113.174 129.112 111.73C130.794 111.544 134.719 112.403 136.962 117.337C136.214 115.095 133.934 109.824 130.794 106.684C127.654 103.544 129.486 61.2667 130.794 40.5207C133.037 35.8481 139.541 26.6152 147.615 27.0637C151.809 27.2967 154.938 28.1107 158.29 28.9826C163.003 30.2088 168.157 31.5495 177.332 31.5495C183.945 31.5495 189.066 29.9578 194.454 28.2829C200.481 26.4097 206.842 24.4324 216.001 24.4614C211.397 23.0971 207.221 22.547 203.686 22.547C195.033 22.547 192.059 23.0965 188.376 23.7768C185.616 24.2867 182.458 24.8702 176.211 25.3507C170.894 25.3507 165.957 24.3973 160.97 23.434C153.862 22.0612 146.65 20.6684 138.084 21.9865C132.514 22.8434 102.198 44.4147 98.8342 48.9003C95.47 53.3859 92.6664 88.1497 92.6664 97.6816C92.6664 105.307 98.6473 108.335 101.638 108.896C80.5552 107.101 68.5561 119.362 65.1919 125.717C68.5561 122.166 78.7609 114.839 92.6664 113.942C106.572 113.045 116.403 117.306 119.58 119.549C117.337 116.409 114.908 114.503 113.973 113.942C121.15 116.185 126.309 121.231 127.991 123.474C126.197 118.54 122.758 115.437 121.262 114.503C129.337 117.194 135.093 124.595 136.962 127.96C137.859 126.614 137.71 125.156 137.523 124.595C138.831 127.399 140.663 133.118 137.523 133.567C134.383 134.015 117.151 127.025 108.927 123.474C112.515 126.614 116.403 129.642 117.898 130.763C112.852 128.52 101.077 127.399 96.0307 129.081C91.9936 130.427 90.9843 133.754 90.9843 135.249C101.75 133.006 112.665 136.183 116.777 138.052C81.4523 133.567 67.8086 153.378 63.5098 164.406C92.6143 137.907 110.276 142.707 125.1 146.736C129.411 147.908 133.481 149.014 137.523 149.267C146.532 149.83 150.711 138.348 152.39 126.023Z" fill="#B05B3B"/>
<path d="M44.446 265.924C44.446 267.27 46.6889 279.942 47.8103 286.11C35.6991 289.249 34.1664 271.344 34.9139 261.999C16.9714 227.796 16.9714 207.05 18.6535 197.518C16.5975 191.911 13.3828 180.697 16.9713 180.697C20.5599 180.697 23.3114 188.921 24.2386 193.033C22.4955 194.967 21.2049 197.838 20.8963 202.004C19.9991 214.115 23.513 221.255 25.3821 223.311C24.2607 214.339 25.3821 205.368 26.5035 204.807C27.6249 204.247 30.4284 204.247 29.8677 217.143C29.4191 227.46 31.176 236.768 32.1105 240.132C30.3163 236.992 27.6249 232.095 26.5035 230.039C31.5498 262.56 44.446 264.242 44.446 265.924Z" fill="#B05B3B"/>
<path d="M126.87 113.412C127.991 116.777 134.047 119.692 135.841 122.384C136.028 119.767 134.719 111.73 126.87 113.412Z" fill="black"/>
<path fill-rule="evenodd" clip-rule="evenodd" d="M104.155 143.635C109.27 141.761 113.658 141.02 115.655 140.887C112.829 139.298 109.91 138.177 107.227 137.403C78.9285 137.275 67.3975 154.433 63.5098 164.406C80.3241 149.097 93.3193 144.235 104.155 143.635ZM105.145 134.924C114.311 134.74 124.023 137.452 128.551 139.205C125.707 134.37 120.609 131.234 116.116 129.395C116.861 129.976 117.475 130.446 117.898 130.763C112.852 128.521 101.077 127.399 96.0307 129.081C91.9936 130.427 90.9843 133.754 90.9843 135.249C95.8933 134.226 100.833 134.331 105.145 134.924Z" fill="url(#paint2_linear_4802_1234)"/>
<path fill-rule="evenodd" clip-rule="evenodd" d="M102.904 147.721C104.447 148.665 106.209 149.943 107.806 151.541C108.93 152.664 110.901 153.008 113.175 152.9L115.656 150.419C111.588 148.181 107.058 147.55 102.904 147.721Z" fill="#B05B3B"/>
<path fill-rule="evenodd" clip-rule="evenodd" d="M161.666 176.592C164.609 146.493 164.982 111.043 151.541 88.7415C151.862 92.4864 152.513 100.102 153.349 109.885C153.334 108.337 153.29 106.875 153.223 105.532C157.224 116.733 163.581 144.597 161.666 176.592ZM284.709 245.466C281.866 251.265 278.387 259.079 276.017 266.485C275.076 269.427 274.258 272.319 273.46 275.141C270.455 285.767 267.732 295.399 259.757 302.931C257.437 305.122 255.413 306.632 253.509 308.052C247.128 312.812 242.085 316.574 231.722 341.62C225.327 354.809 208.676 364.01 197.406 370.237C196.203 370.902 195.062 371.532 194.001 372.13C201.06 371.266 208.495 368.09 226.675 356.727C238.263 350.186 263.457 332.841 271.531 315.796C276.996 303.774 279.797 282.434 282.596 261.116C283.287 255.851 283.978 250.587 284.709 245.466ZM174.881 370.909C174.665 370.848 174.446 370.786 174.224 370.724C168.366 369.074 160.363 366.82 146.494 366.82C121.823 366.82 126.869 336.542 127.43 333.739C127.521 333.283 127.591 332.881 127.655 332.511C128.131 329.755 128.292 328.819 134.72 321.403C76.4064 291.686 60.1458 230.569 59.0243 226.083C58.1272 222.495 60.1458 220.85 61.2672 220.476C77.9872 214.743 80.8689 211.453 85.8636 205.75C86.7314 204.759 87.6628 203.695 88.7417 202.533C93.2503 197.678 96.0674 198.142 99.1706 198.654C103.163 199.312 107.628 200.048 116.777 189.637C129.785 174.835 134.159 175.62 134.72 177.862C119.02 197.599 116.215 228.7 116.775 241.783C106.526 248.762 99.2125 255.341 99.3952 259.725C99.8848 271.477 105.505 287.504 108.042 294.738C108.411 295.788 108.714 296.653 108.927 297.293C110.273 301.33 113.6 300.844 115.095 300.096C134.72 280.472 144.812 277.668 149.859 277.668C151.381 277.668 152.677 277.733 153.796 277.84C149.191 278.917 148.043 280.981 148.177 282.185V312.463C134.271 314.706 120.702 310.407 115.656 307.977C136.799 326.771 152.43 321.942 161.229 319.224C162.931 318.698 164.377 318.252 165.558 318.07C171.39 317.173 178.828 321.434 181.819 323.677C171.726 321.995 162.194 328.723 159.951 333.209C158.157 336.797 159.204 348.909 159.951 354.516C163.586 359.203 169.405 365.995 174.881 370.909ZM172.314 277.017C172.54 277.005 172.762 276.991 172.984 276.976C175.171 276.829 177.348 276.55 182.94 276.017C192.36 275.12 199.201 281.998 201.443 285.549C199.201 278.26 185.183 265.364 176.212 265.364C174.275 265.364 170.389 266.548 166.04 268.149C168.017 269.439 170.432 271.958 172.848 276.547C172.706 276.688 172.528 276.847 172.314 277.017ZM156.233 270.552C158.439 268.674 160.408 266.458 161.073 264.242C163.129 264.803 168.362 264.803 172.848 260.317C178.123 255.042 178.931 255.226 183.211 256.2C183.48 256.262 183.763 256.326 184.062 256.392C188.099 257.289 191.725 255.645 193.033 254.71C190.603 254.336 184.622 253.028 180.137 250.785C176.973 249.204 174.524 250.656 171.882 252.222C169.841 253.432 167.686 254.71 164.998 254.71C161.364 254.71 158.724 253.088 157.211 251.636C155.975 251.5 154.635 251.225 153.223 250.754C150.728 249.922 148.773 251.249 146.585 252.734C142.873 255.253 138.493 258.226 129.673 251.876C132.851 255.987 142.009 262.529 153.223 255.8C153.41 259.165 152.886 267.127 149.298 272.061C150.49 272.18 153.034 271.919 156.233 270.552ZM164.406 250.769C165.649 250.55 166.977 250.197 168.362 249.664C164.437 248.169 156.363 242.15 155.466 230.039C155.19 226.313 156.307 218.339 157.78 207.824C158.109 205.475 158.456 202.999 158.809 200.415C156.63 213.044 154.327 218.596 152.603 222.753C150.972 226.686 149.859 229.369 149.859 235.615C149.859 249.633 161.073 251.315 164.437 250.754C164.427 250.759 164.417 250.764 164.406 250.769Z" fill="#B05B3B"/>
<path d="M86.499 247.421C89.8632 246.3 91.5453 242.935 90.4239 236.207C90.4239 227.236 97.9 220.507 101.638 218.264C91.321 221.404 81.6395 227.423 78.0884 230.039C79.7705 240.132 82.574 249.103 86.499 247.421Z" fill="url(#paint3_linear_4802_1234)"/>
<path d="M184.622 169.483C181.482 164.997 180.697 158.269 180.697 155.465C177.557 168.474 179.388 189.295 180.697 198.079C179.575 187.986 188.546 175.09 184.622 169.483Z" fill="#B05B3B"/>
<path d="M190.789 283.306C184.958 279.717 179.388 280.316 177.333 281.063C190.229 281.063 205.368 300.688 196.957 299.006C190.229 297.66 182.192 298.445 179.015 299.006L196.396 304.613C195.051 308.65 190.603 310.781 188.547 311.341C198.864 313.584 207.05 308.538 209.853 305.734V302.37C205.368 299.567 198.079 287.792 190.789 283.306Z" fill="#B05B3B"/>
<path d="M212.097 303.492C209.405 302.594 203.873 296.389 201.443 293.399C200.995 296.09 204.621 301.623 206.49 304.052C196.397 304.052 185.744 297.324 180.137 297.324C174.529 297.324 175.09 298.445 164.437 298.445C145.373 298.445 144.251 289.474 144.251 288.352L144.251 288.324C144.251 287.148 144.249 282.185 150.419 282.185C156.641 282.185 157.148 283.867 162.194 283.867C166.231 283.867 169.109 281.624 170.044 280.503C169.296 281.063 166.792 282.185 162.755 282.185C157.708 282.185 158.269 280.503 150.419 280.503C142.569 280.503 134.719 289.474 126.87 296.763C120.59 302.594 116.403 304.8 115.095 305.174C119.58 308.725 130.794 315.827 139.766 315.827C148.737 315.827 155.839 313.584 158.269 312.463C138.532 313.36 131.355 307.977 130.234 305.174C145.934 298.445 154.344 302.37 162.755 302.37C171.165 302.37 177.109 299.679 185.183 302.37C193.257 305.062 200.883 306.482 203.686 306.856C201.892 309.099 199.2 310.781 198.079 311.341C203.91 311.341 209.854 306.108 212.097 303.492Z" fill="black"/>
<path d="M243.496 167.801C226.115 174.529 212.097 171.539 207.051 168.922L200.883 163.876L207.051 157.147L227.797 153.783L251.907 163.876L243.496 167.801Z" fill="#F9F9FB"/>
<path fill-rule="evenodd" clip-rule="evenodd" d="M196.397 157.148C199.387 155.839 206.938 153.447 213.218 154.344C206.863 154.905 193.369 158.718 190.229 169.483C192.285 167.988 197.406 165.446 201.443 167.24C206.489 169.483 210.414 171.165 214.339 171.165C211.349 170.418 205.256 167.913 204.807 163.876C204.359 159.839 209.106 158.83 211.536 158.83C212.097 162.381 215.124 168.922 222.75 168.922C224.491 168.922 225.992 168.581 227.279 168.013C226.556 167.216 226.115 166.158 226.115 164.997C226.115 162.52 228.123 160.512 230.6 160.512C231.596 160.512 232.516 160.836 233.26 161.385C233.618 160.46 233.846 159.578 233.964 158.83C235.527 159.565 237.317 160.12 239.599 160.828C241.956 161.558 244.839 162.452 248.542 163.876C246.113 165.745 240.132 169.595 235.646 170.044C240.879 170.791 253.252 170.941 260.878 165.558C259.361 164.908 257.454 163.913 255.155 162.714C251.506 160.81 246.872 158.392 241.253 156.026C232.312 152.261 230.217 150.077 229.001 148.809C228.768 148.566 228.567 148.357 228.357 148.176C233.777 148.176 247.197 150.195 257.514 158.269C254.523 153.223 243.72 143.13 224.432 143.13C208.732 143.13 197.705 152.475 196.397 157.148Z" fill="black"/>
<path d="M201.443 244.618C203.125 229.478 187.425 217.704 182.939 208.172C185.182 217.704 179.575 223.871 190.229 230.039C198.751 234.973 201.256 241.814 201.443 244.618Z" fill="#B05B3B"/>
<path d="M199.2 242.936C197.406 256.392 184.248 254.897 177.893 252.468C179.575 254.337 181.818 256.953 187.425 257.514C195.236 258.295 209.372 250.225 197.277 232.282C198.883 235.609 199.698 239.2 199.2 242.936Z" fill="url(#paint4_radial_4802_1234)"/>
<path fill-rule="evenodd" clip-rule="evenodd" d="M287.317 115.802C287.633 128.242 287.792 140.24 287.792 145.902C287.792 148.634 289.002 150.816 290.448 153.423C292.266 156.701 294.456 160.65 295.081 167.209C295.978 176.629 295.455 189.45 295.081 194.684C297.511 189.45 304.277 179.096 311.902 179.545C315.167 179.737 315.739 181.511 315.281 185.415C309.571 183.771 307.474 188.597 306.971 192.935C303.757 192.494 298.737 196.744 294.52 204.776C292.4 208.815 290.661 214.2 289.17 220.459C289.088 213.406 290.004 209.087 290.595 207.611C297.87 183.058 293.346 171.779 286.591 154.937C285.016 151.009 283.32 146.78 281.624 142.008C283.835 133.605 285 127.643 286.494 119.995C286.756 118.656 287.027 117.266 287.317 115.802ZM306.048 223.381C305.936 223.755 305.831 224.096 305.734 224.401C308.538 207.019 308.538 195.805 304.613 196.926C300.688 198.048 299.006 204.776 299.006 209.823C299.006 211.841 299.365 214.219 299.724 216.596C300.262 220.162 300.8 223.728 300.127 226.083C299.988 226.57 299.866 227.013 299.751 227.433C298.937 230.398 298.45 232.172 294.52 239.54C290.932 246.268 290.035 251.689 290.035 253.558C291.829 250.866 297.511 243.839 300.127 240.661C299.987 241.506 299.84 242.323 299.689 243.113C301.94 238.016 304.412 231.081 306.048 223.381ZM297.726 251.115C297.86 252.981 297.944 255.464 297.964 258.272C297.346 259.536 296.754 260.766 296.202 261.968C296.389 270.939 294.632 288.433 286.11 286.639C285.211 286.45 284.822 286.131 284.301 285.703C284.033 285.482 283.729 285.232 283.303 284.957C283.382 284.603 283.475 284.199 283.579 283.749C284.462 279.927 286.11 272.798 286.11 264.772C288.681 265.528 293.919 263.372 297.726 251.115Z" fill="#B05B3B"/>
<path d="M155.466 561.977C147.84 559.734 140.7 552.445 138.084 549.08C160.512 549.08 189.108 538.427 197.518 533.941C204.247 530.353 221.629 511.139 229.479 501.981C185.292 516.784 156.119 508.149 147.055 501.981C145.186 488.337 142.009 458.47 144.251 448.154C147.055 435.257 166.68 422.922 166.68 418.436C166.68 414.848 151.728 394.703 144.251 385.08C139.383 384.117 132.569 382.187 124.627 378.626C111.618 372.795 94.1618 357.132 87.0596 350.03C95.2832 355.824 114.31 368.646 124.627 373.58C137.523 379.747 178.455 378.626 194.154 378.626C206.714 378.626 234.55 361.805 246.898 353.394C246.814 361.395 246.331 370.066 245.178 378.626C242.038 401.951 244.618 433.949 246.3 447.032C245.403 436.715 249.29 418.81 251.346 411.147C259.57 415.259 277.587 424.38 283.867 427.968C290.147 431.557 291.343 435.444 291.156 436.939C290.969 440.304 289.923 452.415 287.231 473.946C284.54 495.477 258.075 522.167 245.178 532.82C239.571 535.997 223.311 544.819 203.126 554.687C177.894 567.023 164.998 564.78 155.466 561.977Z" fill="#B05B3B"/>
<path fill-rule="evenodd" clip-rule="evenodd" d="M243.871 414.942C244.295 428.181 245.42 440.191 246.299 447.032C245.842 441.77 246.629 434.533 247.783 427.689C249.248 424.43 251.309 421.837 252.467 420.679C256.953 424.604 267.045 435.818 267.045 442.546C267.045 455.106 257.14 473.385 252.467 481.235L276.577 452.639C282.558 458.433 290.932 475.067 276.577 495.253C262.223 515.438 230.226 531.698 216.021 537.305C218.825 533.38 226.114 522.166 231.16 512.634C235.197 505.009 241.814 495.253 244.617 491.328C239.648 495.469 234.249 499.132 229.379 502.096C229.412 502.058 229.445 502.019 229.478 501.981C210.516 508.333 194.319 510.369 181.289 510.137C165.303 508.964 151.637 504.983 152.662 495.253C154.456 478.207 179.949 447.78 192.472 434.696C191.911 429.837 189.332 417.539 183.5 407.222C177.669 396.905 167.987 389.466 163.876 387.036C181.37 387.485 192.098 384.607 195.275 383.112C181.62 382.606 171.125 380.651 163.83 378.572C172.55 378.765 181.058 378.705 187.666 378.659C190.119 378.641 192.31 378.626 194.154 378.626C204.372 378.626 224.701 367.492 238.575 358.812C239.373 376.722 241.765 398.556 243.871 414.942Z" fill="#D79771"/>
<path fill-rule="evenodd" clip-rule="evenodd" d="M44.1687 286.419C35.3879 285.394 34.249 270.311 34.9139 262C31.0445 254.624 28.0096 247.873 25.646 241.727C29.6328 249.748 34.2326 258.25 36.5956 260.318C37.0805 267.752 39.2423 281.866 44.1687 286.419Z" fill="url(#paint5_linear_4802_1234)"/>
<path d="M52.0343 78.6488C50.1117 83.6952 50.539 112.478 52.0343 123.505C52.0343 112.478 54.3139 88.0687 57.9026 78.6488C61.4913 69.229 72.5938 57.5289 78.3876 52.8564C71.0984 57.5289 55.623 69.2291 52.0343 78.6488Z" fill="url(#paint6_linear_4802_1234)"/>
<path d="M74.7236 318.631C67.0981 311.005 57.9025 289.474 55.6597 279.381C55.6597 291.717 64.6309 314.706 69.1166 321.434C72.7051 326.817 92.8531 342.554 103.88 347.787C96.778 342.741 82.3492 326.256 74.7236 318.631Z" fill="url(#paint7_linear_4802_1234)" stroke="black"/>
<path d="M89.8631 385.915C88.0688 376.047 87.2465 366.477 87.0596 362.926C97.1523 368.533 94.5356 414.511 91.5452 422.361C92.1059 415.072 91.4942 394.887 89.8631 385.915Z" fill="url(#paint8_linear_4802_1234)" stroke="black"/>
<defs>
<linearGradient id="paint0_linear_4802_1234" x1="323" y1="574" x2="8.00001" y2="8" gradientUnits="userSpaceOnUse">
<stop stop-color="#4D5BCE"/>
<stop offset="1" stop-color="#43D9AD" stop-opacity="0.98"/>
</linearGradient>
<linearGradient id="paint1_linear_4802_1234" x1="72.7748" y1="156.764" x2="120.384" y2="197.272" gradientUnits="userSpaceOnUse">
<stop offset="0.360212" stop-color="#43D9AD"/>
<stop offset="1" stop-color="#4D5BCE"/>
</linearGradient>
<linearGradient id="paint2_linear_4802_1234" x1="15.5" y1="146" x2="159.179" y2="242.133" gradientUnits="userSpaceOnUse">
<stop offset="0.360212" stop-color="#43D9AD"/>
<stop offset="1" stop-color="#4D5BCE"/>
</linearGradient>
<linearGradient id="paint3_linear_4802_1234" x1="115" y1="271" x2="96.7198" y2="212.448" gradientUnits="userSpaceOnUse">
<stop stop-color="#4D5BCE"/>
<stop offset="1" stop-color="#43D9AD" stop-opacity="0.98"/>
</linearGradient>
<radialGradient id="paint4_radial_4802_1234" cx="0" cy="0" r="1" gradientUnits="userSpaceOnUse" gradientTransform="translate(181.958 211.681) rotate(66.4236) scale(50.0635 35.435)">
<stop stop-color="#555555"/>
<stop offset="1" stop-color="#010101"/>
</radialGradient>
<linearGradient id="paint5_linear_4802_1234" x1="14.1704" y1="243.5" x2="47.2491" y2="281.063" gradientUnits="userSpaceOnUse">
<stop stop-color="#5C7AEA"/>
<stop offset="1" stop-color="#7CC2F5"/>
</linearGradient>
<linearGradient id="paint6_linear_4802_1234" x1="154" y1="279" x2="-3.58151" y2="100.936" gradientUnits="userSpaceOnUse">
<stop stop-color="#4D5BCE"/>
<stop offset="1" stop-color="#43D9AD" stop-opacity="0.98"/>
</linearGradient>
<linearGradient id="paint7_linear_4802_1234" x1="103.936" y1="347.817" x2="68.7062" y2="285.336" gradientUnits="userSpaceOnUse">
<stop stop-color="#4D5BCE"/>
<stop offset="1" stop-color="#43D9AD" stop-opacity="0.98"/>
</linearGradient>
<linearGradient id="paint8_linear_4802_1234" x1="94.2425" y1="422.387" x2="59.7015" y2="410.434" gradientUnits="userSpaceOnUse">
<stop stop-color="#4D5BCE"/>
<stop offset="1" stop-color="#43D9AD" stop-opacity="0.98"/>
</linearGradient>
</defs>
</svg>
